v 0.66350001 0.2015 0.161
v 0.66350001 0.2015 -0.839
l 1 2
v 0.66350001 -0.2015 0.161
v 0.66350001 0.7985 0.161
l 3 4
v 0.66350001 -0.2015 0
v 0.66350001 -0.2015 1
l 5 6
v 0.66350001 0.2015 0
v 0.66350001 -0.7985 0
l 7 8
v 0.82450002 0.2015 0
v 0.82450002 0.2015 1
l 9 10
v 0.82450002 0.2015 0.161
v 0.82450002 -0.7985 0.161
l 11 12
v 0.82450002 -0.2015 0.161
v 0.82450002 -0.2015 -0.839
l 13 14
v 0.82450002 -0.2015 0
v 0.82450002 0.7985 0
l 15 16
v 0.66350001 -0.2015 0
v 1.6635 -0.2015 0
l 17 18
v 0.82450002 -0.2015 0.161
v -0.17549998 -0.2015 0.161
l 19 20
v 0.82450002 0.2015 0
v -0.17549998 0.2015 0
l 21 22
v 0.66350001 0.2015 0.161
v 1.6635 0.2015 0.161
l 23 24
